<svg width="142" height="129" viewBox="0 0 142 129" fill="none" xmlns="http://www.w3.org/2000/svg">
<path d="M77.5934 88.7897C79.751 88.1053 83.6704 86.2628 85.0701 84.9199C86.6854 83.5122 83.2731 82.0099 82.8676 81.782C82.462 81.5541 62.5552 72.0222 59.0858 70.5524C55.6164 69.0826 44.7415 72.4363 42.1179 73.9411C39.9793 75.1678 41.5141 75.993 41.8047 76.2225C42.0953 76.452 58.6918 85.4034 64.6504 88.1231C69.1628 90.1827 73.3583 90.1331 77.5934 88.7897Z" fill="black" fill-opacity="0.2"/>
<path d="M67.0331 78.6858C66.999 78.6037 64.6732 78.2437 63.5146 78.0739C63.0929 78.4378 62.2336 79.2028 62.1697 79.3524C62.0896 79.5394 62.1926 81.0042 63.1158 82.0653C64.0391 83.1263 66.0398 81.4877 66.6762 81.231C67.3127 80.9743 67.0759 78.7885 67.0331 78.6858Z" fill="#2C2C2C"/>
<path d="M50.1555 70.6172C50.1213 70.535 47.7956 70.175 46.637 70.0053C46.2153 70.3691 45.356 71.1341 45.292 71.2837C45.212 71.4707 45.315 72.9355 46.2382 73.9966C47.1614 75.0576 49.1621 73.419 49.7986 73.1623C50.4351 72.9056 50.1982 70.7199 50.1555 70.6172Z" fill="#131313"/>
<path fill-rule="evenodd" clip-rule="evenodd" d="M63.8529 79.4732L66.026 78.4283L66.0264 78.4293C66.0399 78.4225 66.0534 78.416 66.067 78.4097C67.3617 77.8068 69.2387 79.1057 70.2594 81.3111C71.2801 83.5163 71.058 85.7929 69.7634 86.3957C69.7474 86.4032 69.7313 86.4103 69.7151 86.4172L67.6158 87.428L66.4127 84.8846C66.0974 84.4797 65.8105 84.012 65.5709 83.4943C65.3499 83.0167 65.1871 82.5358 65.081 82.0693L63.8529 79.4732Z" fill="black"/>
<path d="M67.6095 87.431C66.3148 88.0339 64.4385 86.7363 63.4185 84.5327C62.3986 82.3292 62.6213 80.0541 63.916 79.4512C65.2107 78.8483 67.0871 80.1459 68.107 82.3495C69.1269 84.5531 68.9042 86.8281 67.6095 87.431Z" fill="black"/>
<g filter="url(#filter0_d_1_134)">
<path d="M67.0736 86.437C66.1026 86.8892 64.6952 85.916 63.9302 84.2632C63.1653 82.6105 63.3323 80.9041 64.3034 80.4519C65.2744 79.9997 66.6818 80.973 67.4468 82.6257C68.2117 84.2785 68.0447 85.9849 67.0736 86.437Z" fill="url(#paint0_linear_1_134)"/>
</g>
<g filter="url(#filter1_dd_1_134)">
<path fill-rule="evenodd" clip-rule="evenodd" d="M65.7425 81.1009C66.0211 81.2621 66.2968 81.5013 66.5471 81.8028L65.9953 82.7931C65.9218 82.7093 65.8431 82.6391 65.7631 82.5852L65.7425 81.1009ZM65.7887 84.4282C65.9044 84.4699 66.0176 84.4743 66.1174 84.4337L66.9651 85.8602C66.9248 85.8869 66.8824 85.9107 66.8381 85.9314C66.531 86.0744 66.1715 86.0459 65.809 85.8801L65.7887 84.4282ZM65.6854 85.8183L65.6652 84.3699C65.5696 84.3144 65.475 84.2352 65.3872 84.1366L64.8457 85.1086C65.1072 85.4188 65.3955 85.6612 65.6854 85.8183ZM65.6395 82.5154L65.6189 81.0346C65.2381 80.8463 64.8581 80.8076 64.5359 80.9576C64.4461 80.9994 64.3645 81.0542 64.2913 81.1204L65.1464 82.5592C65.1748 82.5335 65.2064 82.5123 65.2413 82.496C65.3601 82.4407 65.4992 82.4516 65.6395 82.5154ZM64.2258 84.1249C64.3781 84.4539 64.561 84.7505 64.7622 85.0062L65.3038 84.0342C65.2357 83.9427 65.1736 83.8389 65.1209 83.7252C65.1159 83.7142 65.1109 83.7032 65.1061 83.6921L64.1542 83.9622C64.1769 84.0165 64.2007 84.0708 64.2258 84.1249ZM66.0782 82.8964L66.63 81.9062C66.824 82.1566 67.0005 82.4451 67.1481 82.7641C67.1785 82.8296 67.207 82.8952 67.2338 82.9608L66.2715 83.2338C66.2662 83.2216 66.2606 83.2093 66.255 83.1971C66.2039 83.0868 66.144 82.9858 66.0782 82.8964ZM64.1081 83.8477C63.9314 83.3913 63.8394 82.9381 63.828 82.5278L64.9698 83.1681C64.9798 83.2979 65.0097 83.4369 65.0603 83.5775L64.1081 83.8477ZM66.317 83.3486C66.3773 83.5173 66.4078 83.6839 66.4097 83.8347L67.5471 84.4723C67.5506 84.0436 67.4628 83.562 67.279 83.0756L66.317 83.3486ZM67.5427 84.6107L66.4032 83.9718C66.3839 84.1422 66.3227 84.283 66.2221 84.3696L67.0635 85.7856C67.3517 85.5375 67.5142 85.117 67.5427 84.6107ZM63.8273 82.3866L64.9671 83.0257C64.9728 82.8831 65.0055 82.7573 65.0638 82.6607L64.2025 81.2111C63.9636 81.4852 63.8362 81.9008 63.8273 82.3866Z" fill="#4C4C4C"/>
</g>
<path fill-rule="evenodd" clip-rule="evenodd" d="M63.8535 79.4271L66.0265 78.3822L66.0268 78.3827C66.0403 78.3759 66.054 78.3693 66.0678 78.3628C67.3625 77.7599 69.2394 79.059 70.2601 81.2642C71.2809 83.4696 71.0588 85.7461 69.7641 86.349C69.7521 86.3546 69.74 86.36 69.7279 86.3652L67.6164 87.3819L66.4122 84.8362C66.0973 84.4317 65.811 83.9645 65.5718 83.4476C65.351 82.9707 65.1884 82.4905 65.0822 82.0247L63.8535 79.4271Z" fill="black"/>
<path d="M63.4148 84.576C64.4229 86.754 66.2738 88.0382 67.549 87.4444C68.8241 86.8506 69.0406 84.6037 68.0325 82.4257C67.0245 80.2478 65.1167 78.8463 63.8415 79.4401C62.5664 80.0339 62.4068 82.3981 63.4148 84.576Z" fill="#222222"/>
<g filter="url(#filter2_d_1_134)">
<path d="M67.0048 86.3471C66.099 86.781 64.7851 85.8331 64.0702 84.2297C63.3553 82.6264 63.5101 80.9749 64.416 80.5409C65.3219 80.107 66.6357 81.055 67.3506 82.6583C68.0655 84.2616 67.9107 85.9131 67.0048 86.3471Z" fill="url(#paint1_linear_1_134)"/>
</g>
<g filter="url(#filter3_dd_1_134)">
<path fill-rule="evenodd" clip-rule="evenodd" d="M64.5778 84.1966C65.0691 85.1747 65.8611 85.7744 66.4795 85.6535L65.9714 84.5356C65.7152 84.5148 65.4233 84.2826 65.2133 83.9238L64.5778 84.1966ZM64.427 83.86C64.0282 82.8522 64.0896 81.8498 64.5576 81.4243L65.0655 82.5421C64.9161 82.7729 64.9082 83.1765 65.0572 83.5895L64.427 83.86ZM66.2667 83.0703C66.0379 82.6151 65.6767 82.3267 65.3808 82.3478L64.8797 81.2449C65.5291 81.0638 66.3956 81.7222 66.8968 82.7999L66.2667 83.0703ZM66.4018 83.4137L67.0374 83.1409C67.399 84.1425 67.3068 85.117 66.8137 85.5009L66.3125 84.3979C66.4847 84.2003 66.5195 83.8194 66.4018 83.4137Z" fill="#A9A8A8"/>
</g>
<path fill-rule="evenodd" clip-rule="evenodd" d="M47.3202 71.5237L49.3091 70.9797L49.3094 70.9806C49.3222 70.9768 49.3352 70.9733 49.3481 70.9699C50.5301 70.6623 51.9095 72.0447 52.429 74.0576C52.9485 76.0703 52.4115 77.9515 51.2295 78.2591C51.2148 78.2629 51.2 78.2664 51.1853 78.2697L49.2623 78.7968L48.6394 76.4642C48.4379 76.0766 48.2699 75.6412 48.1486 75.1714C48.0368 74.7382 47.974 74.3111 47.9559 73.9045L47.3202 71.5237Z" fill="black"/>
<path d="M49.2553 78.7981C48.0733 79.1057 46.6943 77.7246 46.1752 75.7134C45.656 73.7021 46.1934 71.8223 47.3754 71.5147C48.5574 71.2071 49.9364 72.5882 50.4555 74.5995C50.9747 76.6108 50.4373 78.4906 49.2553 78.7981Z" fill="black"/>
<g filter="url(#filter4_d_1_134)">
<path d="M48.9574 77.8791C48.0708 78.1098 47.0365 77.0739 46.6471 75.5654C46.2578 74.0569 46.6608 72.647 47.5473 72.4163C48.4339 72.1856 49.4682 73.2214 49.8576 74.73C50.2469 76.2385 49.8439 77.6484 48.9574 77.8791Z" fill="url(#paint2_linear_1_134)"/>
</g>
<g filter="url(#filter5_dd_1_134)">
<path fill-rule="evenodd" clip-rule="evenodd" d="M48.6571 73.1836C48.8669 73.3623 49.0623 73.6062 49.2268 73.8988L48.6098 74.6474C48.5606 74.5653 48.5052 74.494 48.446 74.4362L48.6571 73.1836ZM48.1841 75.9908C48.2753 76.044 48.3702 76.0651 48.4608 76.046L48.9545 77.3771C48.9165 77.3934 48.8772 77.4069 48.8366 77.4175C48.556 77.4905 48.2576 77.4108 47.9778 77.2149L48.1841 75.9908ZM47.8834 77.1439L48.0891 75.9228C48.0173 75.8615 47.95 75.7804 47.8914 75.6841L47.2868 76.4177C47.4589 76.7188 47.6639 76.967 47.8834 77.1439ZM48.3527 74.3584L48.5633 73.1088C48.2721 72.8922 47.9587 72.8013 47.6648 72.8777C47.5829 72.899 47.5058 72.9325 47.4342 72.9769L47.9319 74.3186C47.9595 74.3017 47.9891 74.2888 48.0206 74.2806C48.1291 74.2524 48.2445 74.283 48.3527 74.3584ZM46.9168 75.4947C46.9942 75.7949 47.1025 76.0725 47.2323 76.3186L47.8369 75.5851C47.7935 75.4975 47.7572 75.4004 47.7303 75.2963C47.7277 75.2863 47.7252 75.2763 47.7228 75.2663L46.8815 75.3467C46.8922 75.3958 46.904 75.4452 46.9168 75.4947ZM48.6636 74.7472L49.2806 73.9985C49.4054 74.2391 49.5095 74.5092 49.5847 74.8005C49.6001 74.8602 49.614 74.9197 49.6265 74.9789L48.774 75.0603C48.7714 75.0492 48.7686 75.038 48.7657 75.0268C48.7398 74.9264 48.705 74.8324 48.6636 74.7472ZM46.8603 75.2431C46.7819 74.8322 46.7742 74.4369 46.8277 74.0901L47.6889 74.8041C47.6773 74.9149 47.6811 75.0366 47.702 75.1627L46.8603 75.2431ZM48.7946 75.1639C48.8194 75.3152 48.8194 75.4599 48.7979 75.587L49.6575 76.2996C49.7265 75.9393 49.7267 75.5203 49.6468 75.0825L48.7946 75.1639ZM49.6324 76.4153L48.7713 75.7014C48.729 75.8415 48.6562 75.9504 48.5585 76.0079L49.0488 77.3294C49.3293 77.1652 49.5306 76.8367 49.6324 76.4153ZM46.8488 73.9712L47.7084 74.6838C47.7353 74.5644 47.7824 74.4633 47.8468 74.3909L47.3455 73.0395C47.1022 73.2333 46.931 73.5635 46.8488 73.9712Z" fill="#4C4C4C"/>
</g>
<path fill-rule="evenodd" clip-rule="evenodd" d="M48.6775 76.6789C48.3675 76.1971 48.1113 75.6147 47.9441 74.9669C47.7864 74.3561 47.7261 73.7574 47.7515 73.2112L47.3149 71.5759L48.3689 71.2876C48.5802 71.0264 48.8407 70.8442 49.1436 70.7654C50.3256 70.4578 51.7049 71.8402 52.2245 73.853C52.7208 75.7758 52.2529 77.5784 51.1797 78.004L51.2152 78.1361L49.257 78.849L48.6775 76.6789Z" fill="black"/>
<path d="M49.2279 78.8547C48.0497 79.1613 46.6751 77.7846 46.1577 75.7798C45.6402 73.7749 46.1758 71.9011 47.354 71.5945C48.5322 71.2879 49.9069 72.6646 50.4243 74.6695C50.9418 76.6743 50.4062 78.5481 49.2279 78.8547Z" fill="#222222"/>
<g filter="url(#filter6_d_1_134)">
<g filter="url(#filter7_d_1_134)">
<path d="M48.9145 77.8618C48.0785 78.0608 47.1028 77.0396 46.7353 75.5809C46.3678 74.1222 46.7475 72.7784 47.5836 72.5794C48.4196 72.3804 49.3952 73.4016 49.7628 74.8603C50.1303 76.319 49.7505 77.6629 48.9145 77.8618Z" fill="url(#paint3_linear_1_134)"/>
</g>
<g filter="url(#filter8_dd_1_134)">
<path fill-rule="evenodd" clip-rule="evenodd" d="M47.1329 75.6576C47.3906 76.511 47.9296 77.1276 48.4494 77.1883L48.2208 76.1594C48.0257 76.0817 47.8368 75.8571 47.72 75.5554L47.1329 75.6576ZM47.053 75.3413C46.8594 74.3957 47.0876 73.5437 47.5869 73.3058L47.8155 74.3347C47.6367 74.4947 47.5604 74.8485 47.6316 75.2404L47.053 75.3413ZM48.7462 75.0462C48.6311 74.6233 48.3757 74.3085 48.1225 74.2532L47.8976 73.2407C48.47 73.2571 49.0809 73.9693 49.3239 74.9455L48.7462 75.0462ZM48.8018 75.3668L49.3881 75.2647C49.5272 76.1746 49.2733 76.9649 48.7664 77.1518L48.5415 76.1394C48.7287 76.0246 48.8282 75.7232 48.8018 75.3668Z" fill="#A9A8A8"/>
</g>
</g>
<g filter="url(#filter9_dd_1_134)">
<path d="M84.6703 81.5651C84.9613 80.9797 84.8809 80.4621 84.8889 79.9936L84.8724 78.7984C84.859 77.8494 84.857 77.0362 84.8435 76.7246C84.83 76.4131 85.161 75.5073 83.4862 73.8606C81.9822 72.382 78.6986 70.6885 77.8835 70.4824C77.0684 70.2763 73.5617 65.3851 72.2697 64.4368C68.4109 61.6047 58.6902 58.9671 56.2956 59.0004C54.9078 58.9609 49.1479 61.9275 48.5066 62.3358C45.1911 64.4471 47.4397 63.5843 45.0126 66.7582C44.8585 66.9217 44.7613 67.734 44.7888 68.1983C44.7915 68.2443 44.786 68.2904 44.77 68.3337C44.7053 68.5087 44.6026 68.7773 44.5919 68.83C44.5159 69.2021 44.7852 71.0417 44.7902 71.4003C44.796 71.8191 44.7236 72.5801 44.8124 73.002C44.9012 73.4238 45.9801 74.42 45.9887 74.292C45.9822 73.8221 46.0122 73.7374 46.1255 72.9837C46.4335 71.8068 46.9899 71.2799 47.4372 71.1792C48.3729 70.9687 49.2363 71.3433 49.9303 72.5194C51.1995 74.67 50.7876 76.0753 50.9068 77.0346C50.9187 77.13 50.9811 77.21 51.0671 77.2531L62.3695 82.9228C62.5994 83.0381 62.837 82.8453 62.818 82.5888C62.815 82.5478 62.8114 82.4912 62.8053 82.404C62.7687 81.8806 62.7412 79.4154 64.2594 78.8676C65.5972 78.3848 67.3302 80.0547 68.1525 81.4169C68.8115 82.5086 69.3474 84.7059 69.4901 85.9887C69.5022 86.0971 69.5662 86.1922 69.6639 86.2406C70.4716 86.6414 72.7152 87.6741 76.0055 86.59C82.9683 84.2959 84.3798 82.1493 84.6703 81.5651Z" fill="url(#paint4_linear_1_134)"/>
</g>
<mask id="mask0_1_134" style="mask-type:alpha" maskUnits="userSpaceOnUse" x="44" y="59" width="41" height="29">
<path d="M84.6703 81.5651C84.9613 80.9797 84.8809 80.4621 84.8889 79.9936L84.8724 78.7984C84.859 77.8494 84.857 77.0362 84.8435 76.7246C84.83 76.4131 85.161 75.5073 83.4862 73.8606C81.9822 72.382 78.6986 70.6885 77.8835 70.4824C77.0684 70.2763 73.5617 65.3851 72.2697 64.4368C68.4109 61.6047 58.6902 58.9671 56.2956 59.0004C54.9078 58.9609 49.1479 61.9275 48.5066 62.3358C45.1911 64.4471 47.4397 63.5843 45.0126 66.7582C44.8585 66.9217 44.7613 67.734 44.7888 68.1983C44.7915 68.2443 44.786 68.2904 44.77 68.3337C44.7053 68.5087 44.6026 68.7773 44.5919 68.83C44.5159 69.2021 44.7852 71.0417 44.7902 71.4003C44.796 71.8191 44.7236 72.5801 44.8124 73.002C44.9012 73.4238 45.9801 74.42 45.9887 74.292C45.9974 74.1639 46.0562 73.4439 46.0208 72.9488C46.0088 72.0871 46.7181 71.3411 47.4372 71.1792C48.3729 70.9687 49.2351 71.2559 49.9291 72.4321C51.3137 74.7782 50.6046 76.0165 50.6917 76.9581C50.7006 77.0541 50.764 77.1343 50.8502 77.1773L62.3429 82.911C62.5776 83.0281 62.8168 82.8249 62.7984 82.5632C62.7953 82.5203 62.7918 82.4645 62.7863 82.3856C62.7497 81.8621 62.7412 79.4154 64.2594 78.8676C65.5972 78.3848 67.3302 80.0547 68.1525 81.4169C68.8115 82.5086 69.3474 84.7059 69.4901 85.9887C69.5022 86.0971 69.5662 86.1922 69.6639 86.2406C70.4716 86.6414 72.7152 87.6741 76.0055 86.59C82.9683 84.2959 84.3798 82.1493 84.6703 81.5651Z" fill="url(#paint5_linear_1_134)"/>
</mask>
<g mask="url(#mask0_1_134)">
<g filter="url(#filter10_ddd_1_134)">
<path d="M66.0504 74.483C64.9052 73.6235 64.9824 72.5235 63.2039 69.4116C63.0977 69.2258 63.1739 68.9872 63.3698 68.9009L72.232 64.9971C72.3599 64.9407 72.5241 64.918 72.6305 65.0085C72.9066 65.2433 73.5866 65.9442 75.2615 67.9735C76.3203 69.2563 76.5226 69.5772 77.3076 70.351C77.4012 70.4433 77.2172 70.6936 76.8216 71.029C75.5603 72.0982 67.9699 75.9236 66.0504 74.483Z" fill="url(#paint6_linear_1_134)"/>
</g>
<g filter="url(#filter11_dd_1_134)">
<path d="M55.2486 65.4638C52.7544 64.28 52.0721 64.1422 50.3473 64.827C49.4754 65.1732 48.3959 65.5563 48.2495 66.1572C48.103 66.7582 50.6695 68.151 51.4202 68.5529C51.787 68.7492 64.8761 75.4443 64.5954 74.6478C64.2514 73.6716 62.3828 69.7668 61.6954 68.7817C61.2529 68.1477 57.7428 66.6476 55.2486 65.4638Z" fill="url(#paint7_linear_1_134)"/>
</g>
<g filter="url(#filter12_f_1_134)">
<path d="M69.3593 79.4917C66.1632 78.0599 64.353 76.2319 62.4163 74.5648C68.137 76.1747 80.113 79.705 79.9295 79.9482C79.7001 80.2521 78.8486 80.6207 76.0055 80.8521C73.2063 81.08 69.7253 79.6557 69.3593 79.4917Z" fill="url(#paint8_linear_1_134)" fill-opacity="0.21"/>
</g>
<g filter="url(#filter13_f_1_134)">
<path d="M81.5239 72.2763C81.3414 72.1304 79.0414 69.8125 77.3275 68.6665C78.7688 71.385 82.0507 77.2919 82.3479 77.2579C82.7193 77.2155 84.4167 76.8733 84.9019 75.7086C85.3791 74.562 81.752 72.4586 81.5239 72.2763Z" fill="url(#paint9_linear_1_134)" fill-opacity="0.13"/>
</g>
<g filter="url(#filter14_dd_1_134)">
<path d="M58.2814 73.7221C58.2807 73.6749 58.2532 73.6323 58.2106 73.6123L57.1391 73.1095C57.0571 73.071 56.9633 73.1316 56.9645 73.2223L56.9667 73.3764C56.9673 73.4237 56.9949 73.4663 57.0376 73.4862L58.1091 73.987C58.1911 74.0252 58.2847 73.9647 58.2835 73.8741L58.2814 73.7221Z" fill="#323232"/>
</g>
<g filter="url(#filter15_dd_1_134)">
<path d="M52.1672 71.1251C52.1666 71.078 52.1391 71.0353 52.0965 71.0153L51.0249 70.5125C50.9429 70.4741 50.8492 70.5347 50.8504 70.6253L50.8526 70.7795C50.8532 70.8266 50.8808 70.8693 50.9235 70.8893L51.995 71.39C52.077 71.4283 52.1706 71.3677 52.1694 71.2771L52.1672 71.1251Z" fill="#323232"/>
</g>
<path d="M73.4809 72.934L66.6329 67.5087C65.8071 67.7447 63.9387 68.6364 63.5811 68.7764C63.1178 68.9578 63.1398 69.2256 63.1398 69.2256C63.1417 69.3662 63.1237 69.268 63.2753 69.5445C63.527 70.0033 63.7289 70.4131 64.2743 71.5958C65.211 73.6273 65.4117 74.1393 66.1949 74.5945C66.7848 74.9374 68.0139 74.9886 69.4968 74.4764C70.8223 74.0185 72.3424 73.4661 73.4809 72.934Z" fill="#C4C4C4" fill-opacity="0.2"/>
<g opacity="0.17" filter="url(#filter16_f_1_134)">
<path d="M83.2781 75.3374C81.3279 76.9251 76.9717 79.2165 75.0176 79.5839" stroke="url(#paint10_linear_1_134)" stroke-width="54.0145" stroke-linecap="round" stroke-linejoin="round"/>
</g>
<g filter="url(#filter17_dddd_1_134)">
<path d="M83.9854 76.2087C84.3613 75.6857 84.2495 75.2732 84.1841 74.6239C84.1821 74.6061 84.1776 74.5873 84.1721 74.5704C83.9989 74.0597 84.7387 75.1154 84.825 75.8519C84.8535 76.0957 84.8395 76.2195 84.8195 76.4452C84.8105 76.5485 84.4746 77.2352 84.508 77.3706C84.5415 77.5061 84.5195 78.5302 84.526 78.6717C84.533 78.8132 84.0548 79.7338 82.5159 80.7713C81.2376 81.6331 79.3932 82.2128 79.2037 82.2427C79.0142 82.2727 78.8193 81.6383 78.681 81.605C78.319 81.518 77.2589 81.9242 76.8625 82.0298C76.4 82.153 75.3207 82.4371 74.135 82.3016C72.6684 82.1339 72.442 81.9706 71.086 81.2565C70.227 80.8041 69.5984 79.9304 69.3345 79.3974C69.263 79.2529 69.3919 79.1217 69.5456 79.1702C70.484 79.4664 72.4189 80.1291 74.5959 80.3217C77.8314 80.6079 80.362 79.037 80.7246 78.8111C82.2486 77.8619 83.051 77.5076 83.9854 76.2087Z" fill="#272727"/>
</g>
<mask id="mask1_1_134" style="mask-type:alpha" maskUnits="userSpaceOnUse" x="69" y="74" width="17" height="9">
<path d="M83.9869 76.2025C84.2864 75.7852 84.2954 75.3038 84.213 74.8832C84.1681 74.6556 84.3902 74.5305 84.5125 74.7294C84.814 75.2209 84.9448 75.6404 84.9837 75.8722C85.0127 76.116 85.0087 76.2711 84.9892 76.4968C84.9803 76.6001 84.4631 77.1924 84.4966 77.3278C84.53 77.4632 84.51 78.3016 84.514 78.5995C84.5185 78.8974 84.0588 79.7274 82.5205 80.7658C81.2428 81.6284 79.3987 82.2092 79.2092 82.2393C79.0198 82.2694 78.8244 81.6351 78.686 81.6019C78.324 81.5151 77.2642 81.922 76.8679 82.0278C76.4054 82.1512 75.3263 82.436 74.1405 82.3012C72.6737 82.1344 72.4472 81.9713 71.0907 81.258C70.229 80.8049 69.5988 79.928 69.3358 79.3956C69.2647 79.2518 69.3923 79.1234 69.5461 79.1718C70.4836 79.467 72.4207 80.1296 74.6001 80.3211C77.8358 80.6053 80.3654 79.0329 80.7278 78.8068C82.2511 77.8567 83.0534 77.5019 83.9869 76.2025Z" fill="#272727"/>
</mask>
<g mask="url(#mask1_1_134)">
<g filter="url(#filter18_d_1_134)">
<path d="M71.6338 79.5705L75.9817 79.5756C75.982 79.5764 75.9823 79.5772 75.9826 79.578C75.9952 79.6128 76.0112 79.6631 76.0247 79.7246C76.0519 79.8483 76.0679 80.0129 76.0279 80.1841C75.9883 80.3533 75.8931 80.5325 75.6914 80.688C75.4883 80.8445 75.1729 80.9801 74.6886 81.052C74.4008 81.0946 74.0021 81.0987 73.5913 81.0267C73.1804 80.9546 72.7635 80.8074 72.4343 80.5523C72.2563 80.4144 72.0363 80.1403 71.8569 79.8926C71.7682 79.7703 71.6911 79.6569 71.6362 79.5741C71.6354 79.5729 71.6346 79.5717 71.6338 79.5705Z" stroke="white" stroke-opacity="0.9" stroke-width="2.27304"/>
</g>
<g filter="url(#filter19_d_1_134)">
<path d="M84.1956 74.8456C84.1961 74.8463 84.1966 74.8469 84.1966 74.8476C84.238 74.9177 84.2894 75.0189 84.3303 75.1426C84.4127 75.3898 84.4536 75.7234 84.2934 76.0809C84.248 76.1826 84.1821 76.2508 84.1147 76.2793C84.0518 76.3057 83.9759 76.303 83.8891 76.2391C83.8287 76.195 83.7468 76.1783 83.6719 76.1719C83.5941 76.1652 83.5087 76.1686 83.4318 76.1755C83.3994 76.1785 83.3674 76.1821 83.3375 76.186L84.1956 74.8456Z" stroke="white" stroke-opacity="0.9" stroke-width="2.27304"/>
</g>
</g>
</g>
<g filter="url(#filter20_f_1_134)">
<path d="M63.3685 77.6977L51.4674 72.275C51.3573 72.2248 51.2418 72.3466 51.2908 72.4572C51.8465 73.7117 51.7792 75.041 51.7564 75.6856C51.7546 75.7348 51.782 75.7799 51.8262 75.8018L62.4886 81.0719C62.5729 81.1136 62.6717 81.0511 62.6725 80.9571C62.6842 79.487 63.0421 78.4162 63.4073 77.9919C63.4786 77.9091 63.468 77.7431 63.3685 77.6977Z" fill="url(#paint11_linear_1_134)" fill-opacity="0.12"/>
</g>
<defs>
<filter id="filter0_d_1_134" x="62.6317" y="79.5227" width="6.1136" height="7.84348" filterUnits="userSpaceOnUse" color-interpolation-filters="sRGB">
<feFlood flood-opacity="0" result="BackgroundImageFix"/>
<feColorMatrix in="SourceAlpha" type="matrix" values="0 0 0 0 0 0 0 0 0 0 0 0 0 0 0 0 0 0 127 0" result="hardAlpha"/>
<feOffset/>
<feGaussianBlur stdDeviation="0.409201"/>
<feComposite in2="hardAlpha" operator="out"/>
<feColorMatrix type="matrix" values="0 0 0 0 0 0 0 0 0 0 0 0 0 0 0 0 0 0 0.25 0"/>
<feBlend mode="normal" in2="BackgroundImageFix" result="effect1_dropShadow_1_134"/>
<feBlend mode="normal" in="SourceGraphic" in2="effect1_dropShadow_1_134" result="shape"/>
</filter>
<filter id="filter1_dd_1_134" x="58.9169" y="80.0471" width="9.1213" height="10.0683" filterUnits="userSpaceOnUse" color-interpolation-filters="sRGB">
<feFlood flood-opacity="0" result="BackgroundImageFix"/>
<feColorMatrix in="SourceAlpha" type="matrix" values="0 0 0 0 0 0 0 0 0 0 0 0 0 0 0 0 0 0 127 0" result="hardAlpha"/>
<feOffset dy="0.32736"/>
<feGaussianBlur stdDeviation="0.24552"/>
<feColorMatrix type="matrix" values="0 0 0 0 1 0 0 0 0 1 0 0 0 0 1 0 0 0 0.41 0"/>
<feBlend mode="normal" in2="BackgroundImageFix" result="effect1_dropShadow_1_134"/>
<feColorMatrix in="SourceAlpha" type="matrix" values="0 0 0 0 0 0 0 0 0 0 0 0 0 0 0 0 0 0 127 0" result="hardAlpha"/>
<feOffset dx="-2.4552" dy="1.63681"/>
<feGaussianBlur stdDeviation="1.2276"/>
<feComposite in2="hardAlpha" operator="out"/>
<feColorMatrix type="matrix" values="0 0 0 0 0 0 0 0 0 0 0 0 0 0 0 0 0 0 0.25 0"/>
<feBlend mode="normal" in2="effect1_dropShadow_1_134" result="effect2_dropShadow_1_134"/>
<feBlend mode="normal" in="SourceGraphic" in2="effect2_dropShadow_1_134" result="shape"/>
</filter>
<filter id="filter2_d_1_134" x="62.5804" y="79.3953" width="6.26008" height="8.09751" filterUnits="userSpaceOnUse" color-interpolation-filters="sRGB">
<feFlood flood-opacity="0" result="BackgroundImageFix"/>
<feColorMatrix in="SourceAlpha" type="matrix" values="0 0 0 0 0 0 0 0 0 0 0 0 0 0 0 0 0 0 127 0" result="hardAlpha"/>
<feOffset/>
<feGaussianBlur stdDeviation="0.520238"/>
<feComposite in2="hardAlpha" operator="out"/>
<feColorMatrix type="matrix" values="0 0 0 0 0 0 0 0 0 0 0 0 0 0 0 0 0 0 0.25 0"/>
<feBlend mode="normal" in2="BackgroundImageFix" result="effect1_dropShadow_1_134"/>
<feBlend mode="normal" in="SourceGraphic" in2="effect1_dropShadow_1_134" result="shape"/>
</filter>
<filter id="filter3_dd_1_134" x="61.5019" y="80.7715" width="6.19858" height="7.11522" filterUnits="userSpaceOnUse" color-interpolation-filters="sRGB">
<feFlood flood-opacity="0" result="BackgroundImageFix"/>
<feColorMatrix in="SourceAlpha" type="matrix" values="0 0 0 0 0 0 0 0 0 0 0 0 0 0 0 0 0 0 127 0" result="hardAlpha"/>
<feOffset dy="0.354846"/>
<feGaussianBlur stdDeviation="0.221779"/>
<feColorMatrix type="matrix" values="0 0 0 0 1 0 0 0 0 1 0 0 0 0 1 0 0 0 0.59 0"/>
<feBlend mode="normal" in2="BackgroundImageFix" result="effect1_dropShadow_1_134"/>
<feColorMatrix in="SourceAlpha" type="matrix" values="0 0 0 0 0 0 0 0 0 0 0 0 0 0 0 0 0 0 127 0" result="hardAlpha"/>
<feOffset dx="-1.33068" dy="0.887115"/>
<feGaussianBlur stdDeviation="0.665336"/>
<feComposite in2="hardAlpha" operator="out"/>
<feColorMatrix type="matrix" values="0 0 0 0 0 0 0 0 0 0 0 0 0 0 0 0 0 0 0.25 0"/>
<feBlend mode="normal" in2="effect1_dropShadow_1_134" result="effect2_dropShadow_1_134"/>
<feBlend mode="normal" in="SourceGraphic" in2="effect2_dropShadow_1_134" result="shape"/>
</filter>
<filter id="filter4_d_1_134" x="45.7987" y="71.6841" width="4.90729" height="6.92712" filterUnits="userSpaceOnUse" color-interpolation-filters="sRGB">
<feFlood flood-opacity="0" result="BackgroundImageFix"/>
<feColorMatrix in="SourceAlpha" type="matrix" values="0 0 0 0 0 0 0 0 0 0 0 0 0 0 0 0 0 0 127 0" result="hardAlpha"/>
<feOffset/>
<feGaussianBlur stdDeviation="0.349999"/>
<feComposite in2="hardAlpha" operator="out"/>
<feColorMatrix type="matrix" values="0 0 0 0 0 0 0 0 0 0 0 0 0 0 0 0 0 0 0.25 0"/>
<feBlend mode="normal" in2="BackgroundImageFix" result="effect1_dropShadow_1_134"/>
<feBlend mode="normal" in="SourceGraphic" in2="effect1_dropShadow_1_134" result="shape"/>
</filter>
<filter id="filter5_dd_1_134" x="42.5934" y="72.151" width="7.53466" height="8.79314" filterUnits="userSpaceOnUse" color-interpolation-filters="sRGB">
<feFlood flood-opacity="0" result="BackgroundImageFix"/>
<feColorMatrix in="SourceAlpha" type="matrix" values="0 0 0 0 0 0 0 0 0 0 0 0 0 0 0 0 0 0 127 0" result="hardAlpha"/>
<feOffset dy="0.279999"/>
<feGaussianBlur stdDeviation="0.209999"/>
<feColorMatrix type="matrix" values="0 0 0 0 1 0 0 0 0 1 0 0 0 0 1 0 0 0 0.41 0"/>
<feBlend mode="normal" in2="BackgroundImageFix" result="effect1_dropShadow_1_134"/>
<feColorMatrix in="SourceAlpha" type="matrix" values="0 0 0 0 0 0 0 0 0 0 0 0 0 0 0 0 0 0 127 0" result="hardAlpha"/>
<feOffset dx="-2.09999" dy="1.39999"/>
<feGaussianBlur stdDeviation="1.05"/>
<feComposite in2="hardAlpha" operator="out"/>
<feColorMatrix type="matrix" values="0 0 0 0 0 0 0 0 0 0 0 0 0 0 0 0 0 0 0.25 0"/>
<feBlend mode="normal" in2="effect1_dropShadow_1_134" result="effect2_dropShadow_1_134"/>
<feBlend mode="normal" in="SourceGraphic" in2="effect2_dropShadow_1_134" result="shape"/>
</filter>
<filter id="filter6_d_1_134" x="45.9727" y="71.9323" width="4.55266" height="6.57671" filterUnits="userSpaceOnUse" color-interpolation-filters="sRGB">
<feFlood flood-opacity="0" result="BackgroundImageFix"/>
<feColorMatrix in="SourceAlpha" type="matrix" values="0 0 0 0 0 0 0 0 0 0 0 0 0 0 0 0 0 0 127 0" result="hardAlpha"/>
<feOffset/>
<feGaussianBlur stdDeviation="0.311181"/>
<feComposite in2="hardAlpha" operator="out"/>
<feColorMatrix type="matrix" values="0 0 0 0 0 0 0 0 0 0 0 0 0 0 0 0 0 0 0.25 0"/>
<feBlend mode="normal" in2="BackgroundImageFix" result="effect1_dropShadow_1_134"/>
<feBlend mode="normal" in="SourceGraphic" in2="effect1_dropShadow_1_134" result="shape"/>
</filter>
<filter id="filter7_d_1_134" x="45.5174" y="71.477" width="5.46325" height="7.4873" filterUnits="userSpaceOnUse" color-interpolation-filters="sRGB">
<feFlood flood-opacity="0" result="BackgroundImageFix"/>
<feColorMatrix in="SourceAlpha" type="matrix" values="0 0 0 0 0 0 0 0 0 0 0 0 0 0 0 0 0 0 127 0" result="hardAlpha"/>
<feOffset/>
<feGaussianBlur stdDeviation="0.538829"/>
<feComposite in2="hardAlpha" operator="out"/>
<feColorMatrix type="matrix" values="0 0 0 0 0 0 0 0 0 0 0 0 0 0 0 0 0 0 0.25 0"/>
<feBlend mode="normal" in2="BackgroundImageFix" result="effect1_dropShadow_1_134"/>
<feBlend mode="normal" in="SourceGraphic" in2="effect1_dropShadow_1_134" result="shape"/>
</filter>
<filter id="filter8_dd_1_134" x="44.2279" y="72.7813" width="5.65728" height="6.70406" filterUnits="userSpaceOnUse" color-interpolation-filters="sRGB">
<feFlood flood-opacity="0" result="BackgroundImageFix"/>
<feColorMatrix in="SourceAlpha" type="matrix" values="0 0 0 0 0 0 0 0 0 0 0 0 0 0 0 0 0 0 127 0" result="hardAlpha"/>
<feOffset dy="0.367526"/>
<feGaussianBlur stdDeviation="0.229704"/>
<feColorMatrix type="matrix" values="0 0 0 0 1 0 0 0 0 1 0 0 0 0 1 0 0 0 0.59 0"/>
<feBlend mode="normal" in2="BackgroundImageFix" result="effect1_dropShadow_1_134"/>
<feColorMatrix in="SourceAlpha" type="matrix" values="0 0 0 0 0 0 0 0 0 0 0 0 0 0 0 0 0 0 127 0" result="hardAlpha"/>
<feOffset dx="-1.37822" dy="0.918815"/>
<feGaussianBlur stdDeviation="0.689111"/>
<feComposite in2="hardAlpha" operator="out"/>
<feColorMatrix type="matrix" values="0 0 0 0 0 0 0 0 0 0 0 0 0 0 0 0 0 0 0.25 0"/>
<feBlend mode="normal" in2="effect1_dropShadow_1_134" result="effect2_dropShadow_1_134"/>
<feBlend mode="normal" in="SourceGraphic" in2="effect2_dropShadow_1_134" result="shape"/>
</filter>
<filter id="filter9_dd_1_134" x="0.878383" y="0.733313" width="140.201" height="127.956" filterUnits="userSpaceOnUse" color-interpolation-filters="sRGB">
<feFlood flood-opacity="0" result="BackgroundImageFix"/>
<feColorMatrix in="SourceAlpha" type="matrix" values="0 0 0 0 0 0 0 0 0 0 0 0 0 0 0 0 0 0 127 0" result="hardAlpha"/>
<feOffset dx="6.24286" dy="-8.32379"/>
<feGaussianBlur stdDeviation="24.9714"/>
<feComposite in2="hardAlpha" operator="out"/>
<feColorMatrix type="matrix" values="0 0 0 0 0 0 0 0 0 0 0 0 0 0 0 0 0 0 0.07 0"/>
<feBlend mode="normal" in2="BackgroundImageFix" result="effect1_dropShadow_1_134"/>
<feColorMatrix in="SourceAlpha" type="matrix" values="0 0 0 0 0 0 0 0 0 0 0 0 0 0 0 0 0 0 127 0" result="hardAlpha"/>
<feOffset dy="-1.04048"/>
<feGaussianBlur stdDeviation="2.08095"/>
<feComposite in2="hardAlpha" operator="out"/>
<feColorMatrix type="matrix" values="0 0 0 0 0 0 0 0 0 0 0 0 0 0 0 0 0 0 0.09 0"/>
<feBlend mode="normal" in2="effect1_dropShadow_1_134" result="effect2_dropShadow_1_134"/>
<feBlend mode="normal" in="SourceGraphic" in2="effect2_dropShadow_1_134" result="shape"/>
</filter>
<filter id="filter10_ddd_1_134" x="59.8823" y="62.4925" width="19.0862" height="17.2211" filterUnits="userSpaceOnUse" color-interpolation-filters="sRGB">
<feFlood flood-opacity="0" result="BackgroundImageFix"/>
<feColorMatrix in="SourceAlpha" type="matrix" values="0 0 0 0 0 0 0 0 0 0 0 0 0 0 0 0 0 0 127 0" result="hardAlpha"/>
<feOffset dx="-1.63681" dy="0.818403"/>
<feGaussianBlur stdDeviation="0.818403"/>
<feColorMatrix type="matrix" values="0 0 0 0 1 0 0 0 0 1 0 0 0 0 1 0 0 0 0.28 0"/>
<feBlend mode="normal" in2="BackgroundImageFix" result="effect1_dropShadow_1_134"/>
<feColorMatrix in="SourceAlpha" type="matrix" values="0 0 0 0 0 0 0 0 0 0 0 0 0 0 0 0 0 0 127 0" result="hardAlpha"/>
<feOffset dy="-0.818403"/>
<feGaussianBlur stdDeviation="0.818403"/>
<feColorMatrix type="matrix" values="0 0 0 0 1 0 0 0 0 1 0 0 0 0 1 0 0 0 0.56 0"/>
<feBlend mode="normal" in2="effect1_dropShadow_1_134" result="effect2_dropShadow_1_134"/>
<feColorMatrix in="SourceAlpha" type="matrix" values="0 0 0 0 0 0 0 0 0 0 0 0 0 0 0 0 0 0 127 0" result="hardAlpha"/>
<feOffset dx="-0.818403" dy="2.4552"/>
<feGaussianBlur stdDeviation="1.2276"/>
<feComposite in2="hardAlpha" operator="out"/>
<feColorMatrix type="matrix" values="0 0 0 0 0 0 0 0 0 0 0 0 0 0 0 0 0 0 0.75 0"/>
<feBlend mode="normal" in2="effect2_dropShadow_1_134" result="effect3_dropShadow_1_134"/>
<feBlend mode="normal" in="SourceGraphic" in2="effect3_dropShadow_1_134" result="shape"/>
</filter>
<filter id="filter11_dd_1_134" x="40.2093" y="63.305" width="24.993" height="18.3333" filterUnits="userSpaceOnUse" color-interpolation-filters="sRGB">
<feFlood flood-opacity="0" result="BackgroundImageFix"/>
<feColorMatrix in="SourceAlpha" type="matrix" values="0 0 0 0 0 0 0 0 0 0 0 0 0 0 0 0 0 0 127 0" result="hardAlpha"/>
<feOffset dy="0.602527"/>
<feGaussianBlur stdDeviation="0.301264"/>
<feColorMatrix type="matrix" values="0 0 0 0 0.925374 0 0 0 0 0.925374 0 0 0 0 0.925374 0 0 0 0.37 0"/>
<feBlend mode="normal" in2="BackgroundImageFix" result="effect1_dropShadow_1_134"/>
<feColorMatrix in="SourceAlpha" type="matrix" values="0 0 0 0 0 0 0 0 0 0 0 0 0 0 0 0 0 0 127 0" result="hardAlpha"/>
<feOffset dx="-4.01706" dy="2.90775"/>
<feGaussianBlur stdDeviation="2.00853"/>
<feComposite in2="hardAlpha" operator="out"/>
<feColorMatrix type="matrix" values="0 0 0 0 0 0 0 0 0 0 0 0 0 0 0 0 0 0 0.63 0"/>
<feBlend mode="normal" in2="effect1_dropShadow_1_134" result="effect2_dropShadow_1_134"/>
<feBlend mode="normal" in="SourceGraphic" in2="effect2_dropShadow_1_134" result="shape"/>
</filter>
<filter id="filter12_f_1_134" x="50.9587" y="63.1072" width="40.4305" height="29.2272" filterUnits="userSpaceOnUse" color-interpolation-filters="sRGB">
<feFlood flood-opacity="0" result="BackgroundImageFix"/>
<feBlend mode="normal" in="SourceGraphic" in2="BackgroundImageFix" result="shape"/>
<feGaussianBlur stdDeviation="5.72882" result="effect1_foregroundBlur_1_134"/>
</filter>
<filter id="filter13_f_1_134" x="69.9619" y="61.3009" width="22.3488" height="23.3228" filterUnits="userSpaceOnUse" color-interpolation-filters="sRGB">
<feFlood flood-opacity="0" result="BackgroundImageFix"/>
<feBlend mode="normal" in="SourceGraphic" in2="BackgroundImageFix" result="shape"/>
<feGaussianBlur stdDeviation="3.6828" result="effect1_foregroundBlur_1_134"/>
</filter>
<filter id="filter14_dd_1_134" x="54.935" y="72.2859" width="5.37808" height="5.77181" filterUnits="userSpaceOnUse" color-interpolation-filters="sRGB">
<feFlood flood-opacity="0" result="BackgroundImageFix"/>
<feColorMatrix in="SourceAlpha" type="matrix" values="0 0 0 0 0 0 0 0 0 0 0 0 0 0 0 0 0 0 127 0" result="hardAlpha"/>
<feOffset dy="-0.405909"/>
<feGaussianBlur stdDeviation="0.202954"/>
<feColorMatrix type="matrix" values="0 0 0 0 0.78755 0 0 0 0 0.78755 0 0 0 0 0.78755 0 0 0 0.19 0"/>
<feBlend mode="normal" in2="BackgroundImageFix" result="effect1_dropShadow_1_134"/>
<feColorMatrix in="SourceAlpha" type="matrix" values="0 0 0 0 0 0 0 0 0 0 0 0 0 0 0 0 0 0 127 0" result="hardAlpha"/>
<feOffset dy="2.02954"/>
<feGaussianBlur stdDeviation="1.01478"/>
<feComposite in2="hardAlpha" operator="out"/>
<feColorMatrix type="matrix" values="0 0 0 0 0 0 0 0 0 0 0 0 0 0 0 0 0 0 0.74 0"/>
<feBlend mode="normal" in2="effect1_dropShadow_1_134" result="effect2_dropShadow_1_134"/>
<feBlend mode="normal" in="SourceGraphic" in2="effect2_dropShadow_1_134" result="shape"/>
</filter>
<filter id="filter15_dd_1_134" x="48.8209" y="69.6889" width="5.37808" height="5.77182" filterUnits="userSpaceOnUse" color-interpolation-filters="sRGB">
<feFlood flood-opacity="0" result="BackgroundImageFix"/>
<feColorMatrix in="SourceAlpha" type="matrix" values="0 0 0 0 0 0 0 0 0 0 0 0 0 0 0 0 0 0 127 0" result="hardAlpha"/>
<feOffset dy="-0.405909"/>
<feGaussianBlur stdDeviation="0.202954"/>
<feColorMatrix type="matrix" values="0 0 0 0 0.78755 0 0 0 0 0.78755 0 0 0 0 0.78755 0 0 0 0.19 0"/>
<feBlend mode="normal" in2="BackgroundImageFix" result="effect1_dropShadow_1_134"/>
<feColorMatrix in="SourceAlpha" type="matrix" values="0 0 0 0 0 0 0 0 0 0 0 0 0 0 0 0 0 0 127 0" result="hardAlpha"/>
<feOffset dy="2.02954"/>
<feGaussianBlur stdDeviation="1.01478"/>
<feComposite in2="hardAlpha" operator="out"/>
<feColorMatrix type="matrix" values="0 0 0 0 0 0 0 0 0 0 0 0 0 0 0 0 0 0 0.74 0"/>
<feBlend mode="normal" in2="effect1_dropShadow_1_134" result="effect2_dropShadow_1_134"/>
<feBlend mode="normal" in="SourceGraphic" in2="effect2_dropShadow_1_134" result="shape"/>
</filter>
<filter id="filter16_f_1_134" x="43.9135" y="44.2373" width="70.4647" height="66.4507" filterUnits="userSpaceOnUse" color-interpolation-filters="sRGB">
<feFlood flood-opacity="0" result="BackgroundImageFix"/>
<feBlend mode="normal" in="SourceGraphic" in2="BackgroundImageFix" result="shape"/>
<feGaussianBlur stdDeviation="2.046" result="effect1_foregroundBlur_1_134"/>
</filter>
<filter id="filter17_dddd_1_134" x="55.9574" y="67.6322" width="42.2405" height="34.6151" filterUnits="userSpaceOnUse" color-interpolation-filters="sRGB">
<feFlood flood-opacity="0" result="BackgroundImageFix"/>
<feColorMatrix in="SourceAlpha" type="matrix" values="0 0 0 0 0 0 0 0 0 0 0 0 0 0 0 0 0 0 127 0" result="hardAlpha"/>
<feOffset dy="0.713018"/>
<feGaussianBlur stdDeviation="0.475344"/>
<feColorMatrix type="matrix" values="0 0 0 0 0 0 0 0 0 0 0 0 0 0 0 0 0 0 0.57 0"/>
<feBlend mode="normal" in2="BackgroundImageFix" result="effect1_dropShadow_1_134"/>
<feColorMatrix in="SourceAlpha" type="matrix" values="0 0 0 0 0 0 0 0 0 0 0 0 0 0 0 0 0 0 127 0" result="hardAlpha"/>
<feOffset dy="-0.475344"/>
<feGaussianBlur stdDeviation="0.475344"/>
<feColorMatrix type="matrix" values="0 0 0 0 0 0 0 0 0 0 0 0 0 0 0 0 0 0 1 0"/>
<feBlend mode="normal" in2="effect1_dropShadow_1_134" result="effect2_dropShadow_1_134"/>
<feColorMatrix in="SourceAlpha" type="matrix" values="0 0 0 0 0 0 0 0 0 0 0 0 0 0 0 0 0 0 127 0" result="hardAlpha"/>
<feOffset dy="6.55317"/>
<feGaussianBlur stdDeviation="6.6784"/>
<feComposite in2="hardAlpha" operator="out"/>
<feColorMatrix type="matrix" values="0 0 0 0 0 0 0 0 0 0 0 0 0 0 0 0 0 0 1 0"/>
<feBlend mode="normal" in2="effect2_dropShadow_1_134" result="effect3_dropShadow_1_134"/>
<feColorMatrix in="SourceAlpha" type="matrix" values="0 0 0 0 0 0 0 0 0 0 0 0 0 0 0 0 0 0 127 0" result="hardAlpha"/>
<feOffset dy="-0.714103"/>
<feGaussianBlur stdDeviation="0.714103"/>
<feComposite in2="hardAlpha" operator="out"/>
<feColorMatrix type="matrix" values="0 0 0 0 0 0 0 0 0 0 0 0 0 0 0 0 0 0 0.5 0"/>
<feBlend mode="normal" in2="effect3_dropShadow_1_134" result="effect4_dropShadow_1_134"/>
<feBlend mode="normal" in="SourceGraphic" in2="effect4_dropShadow_1_134" result="shape"/>
</filter>
<filter id="filter18_d_1_134" x="69.3251" y="78.4315" width="9.56228" height="5.67005" filterUnits="userSpaceOnUse" color-interpolation-filters="sRGB">
<feFlood flood-opacity="0" result="BackgroundImageFix"/>
<feColorMatrix in="SourceAlpha" type="matrix" values="0 0 0 0 0 0 0 0 0 0 0 0 0 0 0 0 0 0 127 0" result="hardAlpha"/>
<feOffset dx="0.757677" dy="0.941178"/>
<feGaussianBlur stdDeviation="0.47059"/>
<feColorMatrix type="matrix" values="0 0 0 0 1 0 0 0 0 1 0 0 0 0 1 0 0 0 0.24 0"/>
<feBlend mode="normal" in2="BackgroundImageFix" result="effect1_dropShadow_1_134"/>
<feBlend mode="normal" in="SourceGraphic" in2="effect1_dropShadow_1_134" result="shape"/>
</filter>
<filter id="filter19_d_1_134" x="80.8817" y="72.8708" width="6.3565" height="6.63903" filterUnits="userSpaceOnUse" color-interpolation-filters="sRGB">
<feFlood flood-opacity="0" result="BackgroundImageFix"/>
<feColorMatrix in="SourceAlpha" type="matrix" values="0 0 0 0 0 0 0 0 0 0 0 0 0 0 0 0 0 0 127 0" result="hardAlpha"/>
<feOffset dx="0.757677" dy="0.941178"/>
<feGaussianBlur stdDeviation="0.47059"/>
<feColorMatrix type="matrix" values="0 0 0 0 1 0 0 0 0 1 0 0 0 0 1 0 0 0 0.24 0"/>
<feBlend mode="normal" in2="BackgroundImageFix" result="effect1_dropShadow_1_134"/>
<feBlend mode="normal" in="SourceGraphic" in2="effect1_dropShadow_1_134" result="shape"/>
</filter>
<filter id="filter20_f_1_134" x="50.0205" y="71.0047" width="14.6915" height="11.3391" filterUnits="userSpaceOnUse" color-interpolation-filters="sRGB">
<feFlood flood-opacity="0" result="BackgroundImageFix"/>
<feBlend mode="normal" in="SourceGraphic" in2="BackgroundImageFix" result="shape"/>
<feGaussianBlur stdDeviation="0.629348" result="effect1_foregroundBlur_1_134"/>
</filter>
<linearGradient id="paint0_linear_1_134" x1="63.6541" y1="89.9408" x2="62.016" y2="86.9634" gradientUnits="userSpaceOnUse">
<stop stop-color="#3F3F3F"/>
<stop offset="1" stop-color="#5C5C5C"/>
</linearGradient>
<linearGradient id="paint1_linear_1_134" x1="63.8161" y1="89.7259" x2="62.2044" y2="86.8825" gradientUnits="userSpaceOnUse">
<stop stop-color="#AAAAAA"/>
<stop offset="1" stop-color="#C2C2C2"/>
</linearGradient>
<linearGradient id="paint2_linear_1_134" x1="45.5415" y1="80.2997" x2="44.6221" y2="77.5417" gradientUnits="userSpaceOnUse">
<stop stop-color="#3F3F3F"/>
<stop offset="1" stop-color="#5C5C5C"/>
</linearGradient>
<linearGradient id="paint3_linear_1_134" x1="45.6936" y1="80.0996" x2="44.8556" y2="77.4181" gradientUnits="userSpaceOnUse">
<stop stop-color="#AAAAAA"/>
<stop offset="1" stop-color="#C2C2C2"/>
</linearGradient>
<linearGradient id="paint4_linear_1_134" x1="51.4211" y1="75.6556" x2="83.3075" y2="70.6866" gradientUnits="userSpaceOnUse">
<stop stop-color="#CECBCB"/>
<stop offset="1" stop-color="white"/>
</linearGradient>
<linearGradient id="paint5_linear_1_134" x1="69.3875" y1="80.9669" x2="59.2297" y2="58.5702" gradientUnits="userSpaceOnUse">
<stop stop-color="#CECBCB"/>
<stop offset="1" stop-color="white"/>
</linearGradient>
<linearGradient id="paint6_linear_1_134" x1="70.7918" y1="57.7617" x2="59.8656" y2="68.3921" gradientUnits="userSpaceOnUse">
<stop stop-color="#E8EAE9"/>
<stop offset="0.498386" stop-color="#707072"/>
<stop offset="1" stop-color="#2F3032"/>
</linearGradient>
<linearGradient id="paint7_linear_1_134" x1="77.8544" y1="97.09" x2="71.2858" y2="63.2217" gradientUnits="userSpaceOnUse">
<stop stop-color="#E8EAE9"/>
<stop offset="0.498386" stop-color="#707072"/>
<stop offset="1" stop-color="#2F3032"/>
</linearGradient>
<linearGradient id="paint8_linear_1_134" x1="70.6541" y1="81.3194" x2="71.9723" y2="77.2835" gradientUnits="userSpaceOnUse">
<stop stop-color="#ECEAEA"/>
<stop offset="1" stop-color="white" stop-opacity="0"/>
</linearGradient>
<linearGradient id="paint9_linear_1_134" x1="86.1708" y1="73.9465" x2="81.0105" y2="75.8284" gradientUnits="userSpaceOnUse">
<stop stop-color="#ECEAEA"/>
<stop offset="1" stop-color="white" stop-opacity="0"/>
</linearGradient>
<linearGradient id="paint10_linear_1_134" x1="79.3037" y1="79.4804" x2="78.3522" y2="77.6916" gradientUnits="userSpaceOnUse">
<stop stop-color="#4B4B4B"/>
<stop offset="0.899322" stop-opacity="0"/>
</linearGradient>
<linearGradient id="paint11_linear_1_134" x1="55.6777" y1="80.2344" x2="58.3223" y2="75.3318" gradientUnits="userSpaceOnUse">
<stop stop-color="#040404"/>
<stop offset="1" stop-color="#3C3C3C" stop-opacity="0"/>
</linearGradient>
</defs>
</svg>
