<?xml version="1.0" encoding="iso-8859-1"?>
<!-- Generator: Adobe Illustrator 19.0.0, SVG Export Plug-In . SVG Version: 6.00 Build 0)  -->
<svg version="1.1" id="Layer_1" xmlns="http://www.w3.org/2000/svg" xmlns:xlink="http://www.w3.org/1999/xlink" x="0px" y="0px"
	 viewBox="0 0 512 512" style="enable-background:new 0 0 512 512;" xml:space="preserve">
<path style="fill:#C7CFE2;" d="M361.932,282.871c-18.241,0-33.029-14.788-33.029-33.029V147.219
	c0-40.199-32.704-72.902-72.902-72.902c-40.199,0-72.903,32.704-72.903,72.902v102.623c0,18.241-14.788,33.029-33.029,33.029
	s-33.029-14.788-33.029-33.029V147.219c0-76.623,62.338-138.962,138.962-138.962s138.96,62.338,138.96,138.96v102.623
	C394.961,268.083,380.173,282.871,361.932,282.871z"/>
<g style="opacity:0.1;">
	<path d="M150.068,282.871c18.241,0,33.029-14.788,33.029-33.029v-73.57h-66.058v73.57
		C117.039,268.083,131.827,282.871,150.068,282.871z"/>
	<path d="M328.903,176.271v73.57c0,18.241,14.788,33.029,33.029,33.029c18.241,0,33.029-14.788,33.029-33.029v-73.57
		L328.903,176.271L328.903,176.271z"/>
</g>
<path style="fill:#FFD782;" d="M399.28,209.301H112.72c-17.01,0-30.799,13.79-30.799,30.799v232.844
	c0,17.01,13.789,30.799,30.799,30.799h286.56c17.01,0,30.799-13.789,30.799-30.799V240.099
	C430.079,223.09,416.289,209.301,399.28,209.301z"/>
<path style="opacity:0.1;enable-background:new    ;" d="M293.948,334.502c0-20.958-16.99-37.948-37.948-37.948
	s-37.948,16.99-37.948,37.948c0,12.115,5.684,22.897,14.525,29.844v72.192h46.846v-72.192
	C288.263,357.399,293.948,346.617,293.948,334.502z"/>
<path d="M232.576,444.796h46.846c4.56,0,8.257-3.697,8.257-8.257v-68.411c9.279-8.716,14.525-20.757,14.525-33.625
	c0-25.478-20.728-46.206-46.206-46.206c-25.478,0-46.205,20.728-46.205,46.206c0,12.868,5.246,24.908,14.524,33.625v68.411
	C224.319,441.098,228.016,444.796,232.576,444.796z M255.999,304.811c16.371,0,29.691,13.32,29.691,29.691
	c0,9.161-4.144,17.673-11.37,23.352c-1.993,1.566-3.155,3.959-3.155,6.492v63.935h-30.332v-63.935c0-2.533-1.164-4.927-3.155-6.492
	c-7.226-5.678-11.37-14.189-11.37-23.352C226.309,318.131,239.629,304.811,255.999,304.811z"/>
<path d="M403.218,201.241v-54.023C403.218,66.042,337.176,0,256.001,0S108.782,66.042,108.782,147.219v54.023
	c-19.693,1.981-35.118,18.652-35.118,38.858v20.724c0,4.56,3.697,8.257,8.257,8.257c4.56,0,8.257-3.697,8.257-8.257v-20.724
	c0-12.43,10.112-22.541,22.541-22.541h286.559c12.43,0,22.542,10.112,22.542,22.541v168.998c0,4.56,3.697,8.257,8.257,8.257
	c4.56,0,8.257-3.697,8.257-8.257V240.099C438.336,219.893,422.911,203.223,403.218,201.241z M320.645,201.043H191.355v-53.824
	c0-35.645,29-64.646,64.646-64.646s64.645,29,64.645,64.646L320.645,201.043L320.645,201.043z M337.16,201.043v-53.824
	c0-44.751-36.408-81.16-81.159-81.16s-81.16,36.408-81.16,81.16v53.824h-49.544v-53.824c0-72.071,58.633-130.704,130.704-130.704
	s130.703,58.633,130.703,130.704v53.824L337.16,201.043L337.16,201.043z"/>
<path d="M430.079,433.869c-4.56,0-8.257,3.697-8.257,8.257v30.816c0,12.43-10.112,22.542-22.542,22.542H112.72
	c-12.43,0-22.541-10.112-22.541-22.542V293.852c0-4.56-3.697-8.257-8.257-8.257c-4.56,0-8.257,3.697-8.257,8.257v179.091
	c0,21.536,17.521,39.057,39.056,39.057h286.559c21.536,0,39.057-17.521,39.057-39.057v-30.816
	C438.336,437.566,434.639,433.869,430.079,433.869z"/>
<g>
</g>
<g>
</g>
<g>
</g>
<g>
</g>
<g>
</g>
<g>
</g>
<g>
</g>
<g>
</g>
<g>
</g>
<g>
</g>
<g>
</g>
<g>
</g>
<g>
</g>
<g>
</g>
<g>
</g>
</svg>
