<svg width="97" height="97" viewBox="0 0 97 97" fill="none" xmlns="http://www.w3.org/2000/svg">
<g clip-path="url(#clip0_342_681)">
<path d="M84.5 10.4951C84.156 10.4951 83.816 10.5181 83.48 10.5471C83.396 10.5241 83.314 10.4951 83.224 10.4951H34C27.383 10.4951 22 15.8781 22 22.4951V73.0051H1C0.447 73.0051 0 73.4511 0 74.0051C0 80.6211 5.383 86.0051 12 86.0051C12.246 86.0051 12.464 85.9051 12.638 85.7591C12.812 85.9051 13.03 86.0051 13.276 86.0051H62.5C69.117 86.0051 74.5 80.6211 74.5 74.0051C74.5 73.9151 74.471 73.8331 74.449 73.7511C74.47 73.6671 74.5 73.5871 74.5 73.4961V70.2461V23.4961H95.5C96.053 23.4961 96.5 23.0491 96.5 22.4961C96.5 15.8781 91.117 10.4951 84.5 10.4951ZM94.449 21.4951H74.551C75.055 16.4491 79.324 12.4951 84.5 12.4951C89.676 12.4951 93.945 16.4491 94.449 21.4951ZM13.276 84.0051C13.03 84.0051 12.812 84.1071 12.638 84.2511C12.464 84.1051 12.246 84.0051 12 84.0051C6.824 84.0051 2.554 80.0501 2.051 75.0051H50.551C50.863 78.7591 52.905 82.0261 55.881 84.0051H13.276ZM62.5 84.0051C56.986 84.0051 52.5 79.5211 52.5 74.0051C52.5 73.4511 52.053 73.0051 51.5 73.0051H24V22.4951C24 16.9811 28.486 12.4951 34 12.4951H77.881C74.643 14.6461 72.5 18.3231 72.5 22.4951V70.2451V73.4951C72.5 73.5851 72.529 73.6671 72.551 73.7491C72.53 73.8331 72.5 73.9131 72.5 74.0031C72.5 79.5191 68.014 84.0051 62.5 84.0051Z" fill="#14224A"/>
<path d="M63.75 64.2451H35.75C35.197 64.2451 34.75 64.6901 34.75 65.2451C34.75 65.7981 35.197 66.2451 35.75 66.2451H63.75C64.303 66.2451 64.75 65.7981 64.75 65.2451C64.75 64.6901 64.303 64.2451 63.75 64.2451Z" fill="#14224A"/>
<path d="M63.75 54.2451H35.75C35.197 54.2451 34.75 54.6901 34.75 55.2451C34.75 55.7981 35.197 56.2451 35.75 56.2451H63.75C64.303 56.2451 64.75 55.7981 64.75 55.2451C64.75 54.6901 64.303 54.2451 63.75 54.2451Z" fill="#14224A"/>
<path d="M63.75 44.2451H35.75C35.197 44.2451 34.75 44.6921 34.75 45.2451C34.75 45.7981 35.197 46.2451 35.75 46.2451H63.75C64.303 46.2451 64.75 45.7981 64.75 45.2451C64.75 44.6921 64.303 44.2451 63.75 44.2451Z" fill="#14224A"/>
<path d="M63.75 34.2451H35.75C35.197 34.2451 34.75 34.6921 34.75 35.2451C34.75 35.7981 35.197 36.2451 35.75 36.2451H63.75C64.303 36.2451 64.75 35.7981 64.75 35.2451C64.75 34.6921 64.303 34.2451 63.75 34.2451Z" fill="#14224A"/>
<path d="M63.75 24.2451H35.75C35.197 24.2451 34.75 24.6921 34.75 25.2451C34.75 25.7981 35.197 26.2451 35.75 26.2451H63.75C64.303 26.2451 64.75 25.7981 64.75 25.2451C64.75 24.6921 64.303 24.2451 63.75 24.2451Z" fill="#14224A"/>
</g>
<defs>
<clipPath id="clip0_342_681">
<rect width="96.5" height="96.5" fill="white"/>
</clipPath>
</defs>
</svg>
